<?xml version="1.0" encoding="UTF-8"?>
<svg version="1.1" xmlns="http://www.w3.org/2000/svg" width="1024" height="1024">
<path d="M0 0 C337.92 0 675.84 0 1024 0 C1024 337.92 1024 675.84 1024 1024 C686.08 1024 348.16 1024 0 1024 C0 686.08 0 348.16 0 0 Z " fill="#0C0D0D" transform="translate(0,0)"/>
<path d="M0 0 C1.4364109 -0.01475876 1.4364109 -0.01475876 2.90184021 -0.02981567 C69.30911529 -0.57148302 134.59035504 18.45642475 183.23046875 65.73828125 C183.81715332 66.31578125 184.40383789 66.89328125 185.00830078 67.48828125 C186.8048972 69.25384241 188.62158699 70.99669721 190.44140625 72.73828125 C198.32822541 80.36241913 205.3191957 88.38263515 211.7890625 97.23828125 C212.38195068 98.04797363 212.38195068 98.04797363 212.98681641 98.87402344 C234.1560813 128.05160262 249.71078753 162.23857851 255.3515625 197.98828125 C255.47378174 198.75938232 255.59600098 199.5304834 255.72192383 200.32495117 C255.96729835 201.89434924 256.20947309 203.46425137 256.44824219 205.03466797 C256.75265641 207.00289345 257.08536204 208.96669524 257.421875 210.9296875 C259.5143424 224.58966837 258.97067887 238.45779016 258.7890625 252.23828125 C258.1290625 252.23828125 257.4690625 252.23828125 256.7890625 252.23828125 C255.44939327 250.63127892 254.16826089 248.97534284 252.9140625 247.30078125 C247.84998789 240.96252012 241.55438465 234.59815655 233.91918945 231.47290039 C231.85295088 230.58038942 230.40984592 229.80913144 228.7890625 228.23828125 C227.59193851 224.73823544 227.44985479 221.2253259 227.2265625 217.55078125 C223.40824988 176.93838095 206.42530517 139.69920088 180.7890625 108.23828125 C180.33982422 107.68076172 179.89058594 107.12324219 179.42773438 106.54882812 C151.91683106 72.60978607 114.3818752 50.56492033 72.7890625 38.23828125 C72.0460791 38.0155957 71.3030957 37.79291016 70.53759766 37.56347656 C58.84354896 34.13441564 46.86641222 32.62216962 34.7890625 31.23828125 C33.62761719 31.10421875 32.46617187 30.97015625 31.26953125 30.83203125 C-16.87636866 26.28877464 -69.73963709 38.74719986 -109.2109375 67.23828125 C-109.84789551 67.69170898 -110.48485352 68.14513672 -111.14111328 68.61230469 C-119.81247704 74.8188701 -128.01188002 81.33382479 -135.68066406 88.75927734 C-136.74401676 89.787004 -137.81420662 90.80768448 -138.88964844 91.82275391 C-148.12620247 100.54673843 -155.96651735 109.80514607 -163.2109375 120.23828125 C-163.61119141 120.80981934 -164.01144531 121.38135742 -164.42382812 121.97021484 C-181.16398092 146.13221562 -191.2564456 172.5970053 -197.2109375 201.23828125 C-197.41178955 202.193396 -197.6126416 203.14851074 -197.81958008 204.13256836 C-198.93262332 209.76094286 -199.2786809 214.82573462 -199.1484375 220.55078125 C-199.2161994 223.33939425 -199.55180916 225.47360406 -200.2109375 228.23828125 C-202.71106977 230.60253676 -204.98642014 231.609883 -208.1640625 232.90234375 C-216.15650992 236.40672454 -222.16320563 244.05131315 -227.71484375 250.5859375 C-228.20855469 251.13121094 -228.70226562 251.67648437 -229.2109375 252.23828125 C-229.5409375 252.23828125 -229.8709375 252.23828125 -230.2109375 252.23828125 C-231.54081585 193.902656 -217.44424285 138.41765997 -180.2109375 92.23828125 C-179.79473145 91.72056152 -179.37852539 91.2028418 -178.94970703 90.66943359 C-166.88952841 75.79920233 -153.36899159 61.75466231 -137.87451172 50.453125 C-136.20312381 49.23257522 -134.55256247 47.98725316 -132.90234375 46.73828125 C-95.74282524 18.99979043 -46.56217471 0.39410902 0 0 Z " fill="#E9E9E9" transform="translate(498.2109375,182.76171875)"/>
<path d="M0 0 C6.94211235 4.74417713 10.37921306 10.13763917 13 18 C13.09956702 19.95613569 13.13933571 21.91550841 13.14717102 23.87416077 C13.15432632 25.10071381 13.16148163 26.32726685 13.16885376 27.59098816 C13.17169403 28.95266698 13.17440576 30.31434608 13.17700195 31.67602539 C13.18326784 33.10850184 13.18991476 34.54097666 13.19691467 35.97344971 C13.21795021 40.68150706 13.22831956 45.3895647 13.23828125 50.09765625 C13.2423296 51.72043818 13.24644655 53.34321993 13.25063133 54.96600151 C13.26968533 62.59381804 13.28391346 70.22162491 13.2922433 77.84946066 C13.30200376 86.64147322 13.3282911 95.43323322 13.36874419 104.22515684 C13.39896498 111.02786722 13.41371799 117.83050548 13.41702431 124.63328165 C13.41936887 128.69249996 13.4282507 132.75144854 13.45348549 136.81059456 C13.47687463 140.63479077 13.48095638 144.45854176 13.47072411 148.28279114 C13.47023118 149.67992069 13.47647926 151.07707297 13.49028015 152.47413445 C13.59647506 163.86983131 11.91348634 172.85668609 3.91796875 181.3125 C-3.00212957 187.40105901 -12.31401287 189.55440609 -21.359375 189.3046875 C-30.62165665 188.23596269 -37.9814587 184.06997321 -44 177 C-48.28501953 170.26493342 -50.10972797 164.16795736 -50.15390015 156.20249939 C-50.16250061 155.04340057 -50.17110107 153.88430176 -50.17996216 152.69007874 C-50.18422211 151.427155 -50.18848206 150.16423126 -50.19287109 148.86303711 C-50.20077963 147.512327 -50.20904904 146.16161896 -50.21765137 144.81091309 C-50.24379048 140.38307693 -50.25917358 135.95523173 -50.2734375 131.52734375 C-50.27880102 129.99808815 -50.28417854 128.4688326 -50.28956985 126.9395771 C-50.31118908 120.57340659 -50.32992179 114.20723851 -50.34119225 107.84104061 C-50.35740664 98.74468707 -50.39053393 89.64876227 -50.44759309 80.55257028 C-50.48642099 74.14214399 -50.50584021 67.73183175 -50.51111281 61.32129103 C-50.51474953 57.50005444 -50.52658933 53.67927596 -50.55921555 49.85816765 C-50.58952293 46.25711068 -50.5955288 42.65678358 -50.58383179 39.05562592 C-50.58350952 37.12322095 -50.60782472 35.19085948 -50.63320923 33.25862122 C-50.5547807 22.1442733 -47.5641653 12.72061017 -39.7421875 4.61328125 C-28.95513632 -5.37562489 -12.79655717 -7.30308566 0 0 Z " fill="#E8E8E8" transform="translate(328,425)"/>
<path d="M0 0 C6.4419127 5.26871668 9.81958003 11.49780258 12.421875 19.3046875 C12.51916113 21.21246043 12.55685352 23.12347788 12.56231689 25.03372192 C12.56802704 26.22806351 12.57373718 27.42240509 12.57962036 28.65293884 C12.58073822 29.96516922 12.58185608 31.2773996 12.58300781 32.62939453 C12.58763679 34.02408479 12.59266156 35.41877378 12.59805298 36.8134613 C12.61117515 40.60508886 12.6176221 44.39669871 12.62206364 48.18834543 C12.62499592 50.55919921 12.62910112 52.93004816 12.63356781 55.30089951 C12.64724504 62.72421945 12.65690941 70.14752836 12.6607697 77.57086003 C12.66524489 86.12908629 12.68276671 94.6871524 12.7117703 103.24532998 C12.7334263 109.86628644 12.74347614 116.48719798 12.74481082 123.10818946 C12.74585646 127.05945422 12.75171216 131.01056847 12.76963043 134.96179581 C12.78617805 138.6833408 12.78823444 142.40462329 12.77949142 146.12619209 C12.77836074 148.13190249 12.79202811 150.13760443 12.8062439 152.14326477 C12.75388678 163.53065396 10.89668587 170.73689193 2.96875 179.06640625 C-4.31437299 185.46706495 -12.15042241 187.64194053 -21.63671875 187.515625 C-29.82668003 186.9282971 -36.72293181 184.12075913 -42.578125 178.3046875 C-47.1343988 172.39196577 -49.82221775 166.6430397 -49.84555054 159.10736084 C-49.85408051 157.859785 -49.86261047 156.61220917 -49.87139893 155.326828 C-49.87069996 153.95193469 -49.86977693 152.57704147 -49.86865234 151.20214844 C-49.87463958 149.74804846 -49.88144557 148.29395165 -49.88900757 146.83985901 C-49.90665759 142.89544467 -49.9113626 138.95111715 -49.91263914 135.00666714 C-49.91406216 132.53964527 -49.91833468 130.07264537 -49.92363358 127.60562897 C-49.9421324 118.99114078 -49.9503046 110.37671443 -49.94873047 101.76220703 C-49.94752995 93.74545973 -49.96861492 85.72898204 -50.0002178 77.71230292 C-50.02641696 70.81953666 -50.0370962 63.92685824 -50.03581965 57.0340426 C-50.03531097 52.92180669 -50.04094145 48.80981031 -50.06217575 44.69762421 C-50.08161906 40.82660125 -50.08164147 36.95604475 -50.06714249 33.08500481 C-50.06506062 31.66972353 -50.06971807 30.25441259 -50.0818634 28.8391819 C-50.17344267 17.42215973 -48.3541073 9.49765656 -40.51171875 1.03125 C-29.40351187 -8.88759331 -11.94997133 -7.85801145 0 0 Z " fill="#E9E9E9" transform="translate(732.578125,426.6953125)"/>
<path d="M0 0 C57.11585366 0 57.11585366 0 68 9 C78.08878854 19.93095317 79.85325774 30.75288957 79.41015625 45.1328125 C78.78926213 55.22672127 74.34597267 63.17991352 67 70 C63.34396355 73 63.34396355 73 61 73 C61.23803345 73.57407089 61.47606689 74.14814178 61.72131348 74.73960876 C64.18887824 80.69166269 66.65399927 86.6447243 69.11767578 92.59838867 C70.03859256 94.82293456 70.96014124 97.04721895 71.88232422 99.27124023 C73.20444605 102.46009585 74.52432439 105.64987177 75.84375 108.83984375 C76.46715271 110.34139259 76.46715271 110.34139259 77.10314941 111.87327576 C77.4835437 112.79415482 77.86393799 113.71503387 78.25585938 114.66381836 C78.59339233 115.47878281 78.93092529 116.29374725 79.27868652 117.13340759 C80 119 80 119 80 120 C71.75 120 63.5 120 55 120 C52.35697459 114.71394917 49.9158297 109.57758617 47.765625 104.10546875 C47.34129181 103.03441643 47.34129181 103.03441643 46.90838623 101.94172668 C46.31842714 100.44926506 45.73032801 98.95606693 45.14404297 97.4621582 C44.24442976 95.17332799 43.33542386 92.88837558 42.42578125 90.60351562 C41.8509943 89.14605729 41.27675556 87.68838261 40.703125 86.23046875 C40.43131409 85.54921432 40.15950317 84.8679599 39.87945557 84.1660614 C38.75597608 81.28360604 38 79.12407074 38 76 C33.38 76 28.76 76 24 76 C24 90.52 24 105.04 24 120 C16.08 120 8.16 120 0 120 C0 80.4 0 40.8 0 0 Z " fill="#E8E8E8" transform="translate(803,696)"/>
<path d="M0 0 C3.31900683 1.05823406 5.05102454 2.99017988 7.15625 5.6875 C8.37609261 8.12718522 8.28377583 9.68965349 8.28767776 12.41743183 C8.29151891 13.42154836 8.29536005 14.42566489 8.2993176 15.46020919 C8.29845112 16.57156602 8.29758463 17.68292285 8.29669189 18.82795715 C8.29966302 20.00220125 8.30263414 21.17644535 8.3056953 22.38627261 C8.3128908 25.6557625 8.31555579 28.92522043 8.31629276 32.19471705 C8.31814043 35.7169705 8.32568632 39.2392125 8.33242798 42.76145935 C8.3460238 50.46804085 8.35203799 58.17461716 8.35643864 65.88120866 C8.35919902 70.69113351 8.363436 75.50105635 8.36794281 80.31097984 C8.38013724 93.62208969 8.39043612 106.93319792 8.3938179 120.24431324 C8.39403747 121.09665723 8.39425703 121.94900122 8.39448325 122.82717381 C8.39470153 123.68158533 8.39491981 124.53599686 8.3951447 125.41629964 C8.39558817 127.14773166 8.39603473 128.87916368 8.39648438 130.6105957 C8.3967058 131.4694502 8.39692723 132.3283047 8.39715537 133.21318509 C8.40110403 147.13213576 8.41855934 161.05103409 8.4418439 174.96996454 C8.46554395 189.25228083 8.47801914 203.53457084 8.47918582 217.81690711 C8.48010335 225.83915187 8.48587529 233.86132845 8.50400543 241.88355446 C8.5193883 248.71436784 8.52453766 255.54509198 8.51626733 262.37591938 C8.51235431 265.86210368 8.5133219 269.34810818 8.52732468 272.83427048 C8.5399534 276.61170078 8.53421647 280.38866548 8.52374268 284.16609192 C8.53179908 285.27075658 8.53985548 286.37542124 8.54815602 287.51356059 C8.50359591 294.35623405 7.7822188 297.98858762 2.90625 303 C-0.68554997 305.20405907 -2.6881631 305.27074027 -6.84375 304.6875 C-10.54765021 302.66083762 -12.49738011 301.20705484 -14.84375 297.6875 C-15.095599 295.47514409 -15.095599 295.47514409 -15.09822559 292.83731365 C-15.10405779 291.83182277 -15.10988998 290.8263319 -15.11589891 289.7903716 C-15.11211958 288.68260973 -15.10834026 287.57484786 -15.10444641 286.43351746 C-15.10827196 285.2591245 -15.11209751 284.08473154 -15.11603898 282.87475091 C-15.1245918 279.60941308 -15.12412787 276.34421817 -15.11985838 273.07887638 C-15.11739774 269.5593419 -15.12639715 266.03983421 -15.13389587 262.52030945 C-15.14666413 255.62250868 -15.14843386 248.7247468 -15.14609561 241.82693621 C-15.14431439 236.22064687 -15.14605789 230.61436936 -15.15032005 225.00808144 C-15.15091524 224.21091621 -15.15151043 223.41375098 -15.15212366 222.59242922 C-15.15333538 220.97309221 -15.15454952 219.3537552 -15.15576603 217.73441819 C-15.16665011 202.53754369 -15.16447519 187.34069137 -15.15838119 172.14381561 C-15.15321326 158.23853334 -15.16446263 144.33332115 -15.18347941 130.42805275 C-15.20284854 116.15586554 -15.2111153 101.88371149 -15.20735615 87.61151105 C-15.20544244 79.5965207 -15.20794801 71.58158998 -15.22207069 63.56661034 C-15.23397382 56.74206482 -15.23540156 49.91761562 -15.22328053 43.0930688 C-15.21738381 39.61080882 -15.21631405 36.12872508 -15.22828293 32.64647675 C-15.23869212 28.87163098 -15.23069595 25.09726177 -15.2179718 21.32243347 C-15.22534609 20.22136377 -15.23272037 19.12029407 -15.24031812 17.98585862 C-15.19122793 11.08327238 -14.38542041 6.60294546 -9.71875 1.25 C-6.13451019 -0.69795642 -3.96419558 -0.63427129 0 0 Z " fill="#E9E9E9" transform="translate(522.84375,324.3125)"/>
<path d="M0 0 C1.16781006 0.00523682 2.33562012 0.01047363 3.53881836 0.01586914 C4.79887695 0.0190918 6.05893555 0.02231445 7.35717773 0.02563477 C8.6976732 0.03399136 10.03816799 0.04245632 11.37866211 0.05102539 C12.72306153 0.05603879 14.06746271 0.06060197 15.41186523 0.06469727 C18.71334151 0.07653051 22.01473014 0.09301568 25.31616211 0.11352539 C25.64600098 1.29301758 25.97583984 2.47250977 26.31567383 3.68774414 C27.63427975 8.40251189 28.95350258 13.11710688 30.27285767 17.83166504 C30.88495843 20.01920671 31.4969173 22.20678808 32.10873413 24.39440918 C35.92043948 38.02281127 39.7456029 51.64725363 43.59464264 65.26515198 C44.83158949 69.64250163 46.06695835 74.02029703 47.3024826 78.3980484 C48.51417501 82.69037424 49.72875697 86.98186996 50.9453001 91.27282333 C51.70989212 93.97221415 52.4718221 96.67235121 53.23306465 99.37268829 C53.75854345 101.23352189 54.28729847 103.09342934 54.81614685 104.95330811 C55.28952232 106.63508148 55.28952232 106.63508148 55.77246094 108.35083008 C56.04778152 109.32364929 56.32310211 110.29646851 56.60676575 111.29876709 C57.33820959 114.20100586 57.82411729 117.16125645 58.31616211 120.11352539 C50.06616211 120.11352539 41.81616211 120.11352539 33.31616211 120.11352539 C32.07866211 115.31821289 32.07866211 115.31821289 30.81616211 110.42602539 C30.55512695 109.42740479 30.2940918 108.42878418 30.02514648 107.39990234 C29.82211914 106.60028076 29.6190918 105.80065918 29.40991211 104.97680664 C29.20043945 104.1651001 28.9909668 103.35339355 28.77514648 102.51708984 C28.31616211 100.11352539 28.31616211 100.11352539 28.31616211 95.11352539 C16.76616211 95.11352539 5.21616211 95.11352539 -6.68383789 95.11352539 C-7.01383789 97.75352539 -7.34383789 100.39352539 -7.68383789 103.11352539 C-8.03437478 104.62509425 -8.42299253 106.12921241 -8.87524414 107.61352539 C-9.17603882 108.61899414 -9.17603882 108.61899414 -9.48291016 109.64477539 C-9.73484131 110.45946289 -9.98677246 111.27415039 -10.24633789 112.11352539 C-11.05071289 114.75352539 -11.85508789 117.39352539 -12.68383789 120.11352539 C-20.60383789 120.11352539 -28.52383789 120.11352539 -36.68383789 120.11352539 C-34.4338341 107.73850454 -34.4338341 107.73850454 -33.19091797 103.47216797 C-32.91335159 102.50938431 -32.63578522 101.54660065 -32.34980774 100.55464172 C-32.053983 99.54926865 -31.75815826 98.54389557 -31.45336914 97.50805664 C-31.13986008 96.42634689 -30.82635101 95.34463715 -30.50334167 94.23014832 C-29.50612665 90.79392756 -28.50138661 87.35996204 -27.49633789 83.92602539 C-26.84154081 81.67421766 -26.18724043 79.42226543 -25.53344727 77.17016602 C-22.96875575 68.34374101 -20.38921509 59.52167575 -17.8059082 50.70068359 C-14.18826043 38.33842581 -10.64695667 25.95891097 -7.2199707 13.54248047 C-6.65091984 11.48331583 -6.07784586 9.42530624 -5.50415039 7.36743164 C-5.17688965 6.18479736 -4.84962891 5.00216309 -4.51245117 3.78369141 C-3.38268863 0.14308653 -3.38268863 0.14308653 0 0 Z " fill="#E8E8E8" transform="translate(516.683837890625,695.886474609375)"/>
<path d="M0 0 C7.92 0 15.84 0 24 0 C24.01458252 2.6186499 24.02916504 5.2372998 24.04418945 7.93530273 C24.09463343 16.60865799 24.16124577 25.28183556 24.23571491 33.95501614 C24.28035191 39.21112457 24.31962274 44.46715669 24.34643555 49.72338867 C24.37253505 54.80044781 24.41298442 59.87721221 24.46318626 64.95408821 C24.47981008 66.88641747 24.49135219 68.81879766 24.49761391 70.75118828 C24.50730394 73.4678185 24.53542112 76.18370222 24.56762695 78.90014648 C24.56547432 80.08590775 24.56547432 80.08590775 24.5632782 81.29562378 C24.65523865 86.8171289 25.53587049 92.00232136 28 97 C30.38788787 98.62332335 30.38788787 98.62332335 33 99 C33.99 99.33 34.98 99.66 36 100 C41.69734689 100.56430864 46.12785716 100.28586378 51 97 C55.88461854 91.7193313 56.15670997 87.42753551 56.20532227 80.48950195 C56.21522186 79.62099609 56.22512146 78.75249023 56.23532104 77.85766602 C56.26692944 74.98456557 56.29169092 72.11144858 56.31640625 69.23828125 C56.33697634 67.24716256 56.35797283 65.25604823 56.37937927 63.26493835 C56.43459421 58.02232392 56.48400608 52.77967012 56.53222656 47.5369873 C56.58244577 42.18803398 56.63812965 36.83913789 56.69335938 31.49023438 C56.80093391 20.99353664 56.90187557 10.49679034 57 0 C64.92 0 72.84 0 81 0 C81.09068665 11.770779 81.16393769 23.54132261 81.20724869 35.31237316 C81.22804501 40.77926391 81.25621613 46.24590143 81.30175781 51.71264648 C81.34550074 56.99707307 81.3691968 62.28125742 81.37950897 67.56585121 C81.38684958 69.573101 81.40118284 71.58033886 81.42292023 73.58748436 C81.70969293 101.18671853 81.70969293 101.18671853 72.9375 110.5 C65.27610454 118.27499111 54.43248309 122.18812327 43.59350586 122.32958984 C42.84077393 122.3239502 42.08804199 122.31831055 41.3125 122.3125 C40.52302979 122.30686035 39.73355957 122.3012207 38.92016602 122.29541016 C27.29392006 122.05618211 17.77693079 119.46483529 9.21875 111.30078125 C1.17217604 102.52449347 -0.33077513 91.18098821 -0.22705078 79.69482422 C-0.22734283 78.82529617 -0.22763489 77.95576813 -0.22793579 77.05989075 C-0.2265576 74.22471658 -0.21106861 71.38981498 -0.1953125 68.5546875 C-0.19157698 66.57357934 -0.18873256 64.59246932 -0.18673706 62.61135864 C-0.17914301 57.42629797 -0.15953131 52.2413514 -0.1373291 47.05633545 C-0.11677908 41.75371849 -0.10771585 36.4510829 -0.09765625 31.1484375 C-0.07628102 20.7655671 -0.04113383 10.38281094 0 0 Z " fill="#E8E8E8" transform="translate(389,696)"/>
<path d="M0 0 C8.25 0 16.5 0 25 0 C25.70125 2.825625 26.4025 5.65125 27.125 8.5625 C30.91151634 23.72621811 34.76617394 38.86449148 39.125 53.875 C40.988831 60.32732763 42.78387178 66.78698872 44.375 73.3125 C44.54273926 73.97556152 44.71047852 74.63862305 44.88330078 75.32177734 C45.98870473 80.00215545 46.1377067 84.22793333 46 89 C46.66 89 47.32 89 48 89 C48.03208054 88.3696283 48.06416107 87.73925659 48.09721375 87.08978271 C48.64939965 79.08166568 50.40264358 71.63370543 52.45703125 63.890625 C52.80548956 62.55241981 53.15318582 61.21401598 53.50016785 59.87542725 C54.4099199 56.37429604 55.33006663 52.87598135 56.25250244 49.37817383 C57.17810425 45.8605843 58.0933999 42.34031701 59.00976562 38.8203125 C60.67448914 32.43375796 62.34496908 26.04876123 64.03213501 19.66809082 C64.72488875 17.04263826 65.412127 14.41608584 66.09457397 11.78796387 C66.45579113 10.40777517 66.81708663 9.02760697 67.1784668 7.64746094 C67.66575508 5.77474518 67.66575508 5.77474518 68.16288757 3.86419678 C69 1 69 1 70 0 C71.78071246 -0.08726223 73.5648314 -0.10699041 75.34765625 -0.09765625 C76.42724609 -0.09443359 77.50683594 -0.09121094 78.61914062 -0.08789062 C80.32360352 -0.07532227 80.32360352 -0.07532227 82.0625 -0.0625 C83.77276367 -0.05573242 83.77276367 -0.05573242 85.51757812 -0.04882812 C88.34510351 -0.03699747 91.1725264 -0.0205141 94 0 C90.79320107 13.19526792 87.23322811 26.28474176 83.625 39.375 C83.01471736 41.59374657 82.40444741 43.81249664 81.79418945 46.03125 C77.29707024 62.36488867 72.75392621 78.68561373 68.1875 95 C67.8813678 96.09415222 67.5752356 97.18830444 67.25982666 98.31561279 C66.39689456 101.39819576 65.53273472 104.48043105 64.66796875 107.5625 C64.4113295 108.47883209 64.15469025 109.39516418 63.89027405 110.33926392 C63.65473312 111.17734589 63.4191922 112.01542786 63.17651367 112.87890625 C62.97225266 113.6066626 62.76799164 114.33441895 62.55754089 115.08422852 C62.07722953 116.73463089 61.54355561 118.36933318 61 120 C51.76 120 42.52 120 33 120 C29.62566766 109.87700297 29.62566766 109.87700297 28.52050781 105.86230469 C28.26830978 104.95104828 28.01611176 104.03979187 27.75627136 103.10092163 C27.49123306 102.13433624 27.22619476 101.16775085 26.953125 100.171875 C26.66476273 99.12867096 26.37640045 98.08546692 26.07929993 97.01065063 C25.13419462 93.590984 24.19209113 90.17049812 23.25 86.75 C21.91217763 81.90308549 20.57209767 77.05679969 19.23046875 72.2109375 C18.88648544 70.96845245 18.54250214 69.72596741 18.18809509 68.4458313 C15.72000076 59.5498563 13.20945991 50.66656376 10.67578125 41.7890625 C10.32842926 40.57041504 9.98107727 39.35176758 9.62319946 38.09619141 C8.27099801 33.353989 6.91833646 28.61195531 5.55505371 23.8729248 C4.61693287 20.61183808 3.68492769 17.34905681 2.75390625 14.0859375 C2.4733992 13.11862701 2.19289215 12.15131653 1.90388489 11.1546936 C1.65144516 10.26623749 1.39900543 9.37778137 1.13891602 8.46240234 C0.9176857 7.69262054 0.69645538 6.92283875 0.46852112 6.12973022 C0 4 0 4 0 0 Z " fill="#E9E9E9" transform="translate(146,696)"/>
<path d="M0 0 C24.09 0 48.18 0 73 0 C73 18.37280911 73 18.37280911 68.875 25 C68.43341553 25.77287354 67.99183105 26.54574707 67.53686523 27.34204102 C66.05663033 29.91487256 64.5290622 32.45592862 63 35 C61.86526592 36.94473719 60.73387042 38.89142546 59.60546875 40.83984375 C57.23700477 44.92266523 54.85195999 48.99515499 52.45703125 53.0625 C49.28912538 58.46868587 46.24450407 63.93376723 43.25 69.4375 C32.31021549 89.53467676 32.31021549 89.53467676 26 99 C41.51 99 57.02 99 73 99 C73 105.93 73 112.86 73 120 C48.58 120 24.16 120 -1 120 C-1 97.07849212 -1 97.07849212 4.5625 88.875 C5.76771794 86.92757255 6.97211322 84.9796358 8.17578125 83.03125 C8.80693848 82.04382813 9.4380957 81.05640625 10.08837891 80.0390625 C13.31126308 74.9153764 16.2581598 69.635659 19.25 64.375 C27.41862 50.20251991 35.7151834 36.10472908 44 22 C29.48 22 14.96 22 0 22 C0 14.74 0 7.48 0 0 Z " fill="#E9E9E9" transform="translate(299,696)"/>
<path d="M0 0 C24.09 0 48.18 0 73 0 C73 18.28772096 73 18.28772096 68 25.6875 C66.89220112 27.47170824 65.78825206 29.25831069 64.6875 31.046875 C64.09195313 31.99498047 63.49640625 32.94308594 62.8828125 33.91992188 C59.75430728 39.03781891 56.89557979 44.30304044 54.02215576 49.56665039 C53.00122431 51.43525915 51.97532033 53.3010483 50.94775391 55.16601562 C47.79006215 60.89872252 44.64796607 66.63975959 41.5234375 72.390625 C40.98847656 73.37490479 40.45351563 74.35918457 39.90234375 75.37329102 C38.92612101 77.17203135 37.95195729 78.9718917 36.98046875 80.77319336 C33.80526987 86.6306671 30.43657119 92.27238134 27 98 C41.85 98.33 56.7 98.66 72 99 C72 105.93 72 112.86 72 120 C47.91 120 23.82 120 -1 120 C-1 97.38926378 -1 97.38926378 5.953125 87.6015625 C9.53712268 82.33303918 12.45914299 76.7510314 15.4375 71.125 C21.07584342 60.61755373 26.95340799 50.27678455 33 40 C36.3 34.39 39.6 28.78 43 23 C28.81 22.67 14.62 22.34 0 22 C0 14.74 0 7.48 0 0 Z " fill="#E9E9E9" transform="translate(714,696)"/>
<path d="M0 0 C0 49.17 0 98.34 0 149 C-14.62008872 144.61397338 -25.4650716 138.22998407 -33.4609375 124.9765625 C-37.86278559 116.4633436 -40.10958762 107.53882551 -40.14526367 97.96972656 C-40.15164352 96.80121155 -40.15802338 95.63269653 -40.16459656 94.42877197 C-40.16570938 93.17868347 -40.1668222 91.92859497 -40.16796875 90.640625 C-40.17129715 89.34106873 -40.17462555 88.04151245 -40.17805481 86.70257568 C-40.18402585 83.95568003 -40.18589688 81.20881574 -40.18530273 78.46191406 C-40.18520141 74.9677006 -40.19883228 71.47369167 -40.21607494 67.97952652 C-40.22997063 64.61655689 -40.22928644 61.25362288 -40.23046875 57.890625 C-40.23765427 56.64863342 -40.24483978 55.40664185 -40.25224304 54.12701416 C-40.21246618 38.8566037 -36.51603975 24.4764111 -25.875 13 C-19.22411183 6.95373802 -9.14444874 0 0 0 Z " fill="#E6E6E6" transform="translate(266,446)"/>
<path d="M0 0 C14.20879048 3.15750899 24.35628143 10.2511172 32.4609375 22.37109375 C36.80508015 29.79141864 39.10538801 37.01445143 39.17700195 45.58178711 C39.18685875 46.56083511 39.18685875 46.56083511 39.19691467 47.55966187 C39.21658718 49.71555722 39.22830256 51.87138276 39.23828125 54.02734375 C39.24235678 54.76869631 39.2464323 55.51004887 39.25063133 56.27386665 C39.27147583 60.20511721 39.2857792 64.13633314 39.29516602 68.06762695 C39.30617022 72.09536824 39.34050414 76.12254785 39.38033772 80.15009212 C39.4067106 83.27400107 39.41487642 86.39778103 39.41844749 89.52179146 C39.42326781 91.00431635 39.43474877 92.48683731 39.45348549 93.96925163 C39.65013054 110.57202072 35.6859905 124.15777521 24.0625 136.375 C18.05878906 142.02148438 8.597678 149 0 149 C0 99.83 0 50.66 0 0 Z " fill="#E9E9E9" transform="translate(758,446)"/>
<path d="M0 0 C4.115707 2.36434232 5.60450429 4.54618674 7 9 C7.19350717 11.59998057 7.28720753 14.09264426 7.28088379 16.69137573 C7.28979716 17.84193724 7.28979716 17.84193724 7.29889059 19.01574242 C7.31621245 21.58199123 7.31927654 24.14805288 7.32226562 26.71435547 C7.33152553 28.55593258 7.34157533 30.39750587 7.35235596 32.23907471 C7.3785701 37.23908774 7.39148668 42.2390471 7.40037727 47.2391181 C7.40624295 50.36343067 7.41445326 53.48772863 7.42338562 56.61203384 C7.4507238 66.38893212 7.47006403 76.16579694 7.4777894 85.94273078 C7.48675464 97.22632237 7.52187339 108.50942985 7.57979059 119.79287422 C7.62301831 128.51743846 7.64319755 137.24186644 7.64587164 145.96653664 C7.64796776 151.17650797 7.65978289 156.38602388 7.69551086 161.59588242 C7.72846404 166.49624444 7.73278862 171.39580844 7.71523285 176.29624176 C7.7136917 178.09294141 7.72238339 179.8896839 7.74214935 181.68627548 C7.90021871 196.95076349 7.90021871 196.95076349 4.20544434 201.54910278 C1.47608879 204.11435712 -1.31440235 205.11981826 -5.04296875 205.26953125 C-9.39084897 204.6707214 -12.07529305 202.21869818 -14.64415932 198.83311462 C-16.34890117 195.270949 -16.41720075 192.16014871 -16.38095093 188.29516602 C-16.3856309 187.52671388 -16.39031087 186.75826174 -16.39513266 185.96652317 C-16.40708421 183.39547452 -16.39762496 180.82495872 -16.38818359 178.25390625 C-16.39224923 176.40908497 -16.39759106 174.56426613 -16.40411377 172.7194519 C-16.41779413 167.71124683 -16.41248572 162.70322709 -16.40297651 157.69501877 C-16.39538368 152.45495859 -16.40242448 147.21491432 -16.40713501 141.97485352 C-16.41259365 133.17493845 -16.40539808 124.37509891 -16.39111328 115.57519531 C-16.37478658 105.39987797 -16.38007501 95.22474096 -16.3965925 85.04942799 C-16.41020425 76.31469841 -16.41212854 67.58002313 -16.40427649 58.84528637 C-16.39959827 53.62771333 -16.39897924 48.41022507 -16.40888596 43.19265747 C-16.41754879 38.28753336 -16.41154614 33.38264185 -16.39420319 28.47754288 C-16.3902347 26.6768037 -16.39137857 24.87604497 -16.39799118 23.07531357 C-16.40618251 20.61822231 -16.39591464 18.16187761 -16.38095093 15.70483398 C-16.38764309 14.99131051 -16.39433526 14.27778704 -16.40123022 13.54264164 C-16.33798581 8.19294204 -14.89466866 5.11328428 -11.375 1.1875 C-7.64245373 -0.67877314 -4.08422735 -0.65639368 0 0 Z " fill="#EAEAEA" transform="translate(563,375)"/>
<path d="M0 0 C3.58283007 1.32408937 4.6699808 2.44143301 6.60855103 5.72251892 C9.0048196 11.63299245 8.41753903 18.10785979 8.38818359 24.37719727 C8.39225295 25.83646029 8.39759688 27.29572022 8.40411377 28.75497437 C8.41774872 32.70326128 8.41250495 36.65131208 8.40297651 40.59960294 C8.39536149 44.73811541 8.4024305 48.87660817 8.40713501 53.01512146 C8.41258659 59.96283586 8.40541602 66.91045446 8.39111328 73.8581543 C8.37478146 81.88405706 8.38008148 89.90973123 8.3965925 97.93562847 C8.41021674 104.8351892 8.41212264 111.73468122 8.40427649 118.63425106 C8.39960595 122.75133348 8.39895818 126.86830852 8.40888596 130.98538399 C8.41756727 134.8555621 8.41151266 138.72544608 8.39420319 142.5955925 C8.39024481 144.01373621 8.39136128 145.43190479 8.39799118 146.85003853 C8.40622148 148.78967006 8.39405805 150.72935586 8.38095093 152.66896057 C8.37981985 153.75311532 8.37868877 154.83727007 8.37752342 155.95427799 C7.78569684 160.72892017 5.82108661 164.9749731 2 168 C-1.65288193 169.21762731 -4.15754136 169.39075851 -8 169 C-12.30384695 166.15783692 -14.47482574 163.88338563 -16 159 C-16.25726891 156.04329777 -16.25726891 156.04329777 -16.26742554 152.70655823 C-16.27595551 151.4378186 -16.28448547 150.16907898 -16.29327393 148.8618927 C-16.29257497 147.46334826 -16.29165194 146.06480392 -16.29052734 144.66625977 C-16.29651427 143.18758811 -16.30332019 141.70891957 -16.31088257 140.23025513 C-16.32853111 136.2199289 -16.3332374 132.20968806 -16.33451414 128.19932675 C-16.33593671 125.69279612 -16.34020827 123.18628714 -16.34550858 120.67976189 C-16.36400359 111.9325714 -16.37217967 103.18544182 -16.37060547 94.43823242 C-16.36940354 86.28850679 -16.39051727 78.13904576 -16.4220928 69.98938709 C-16.44825154 62.98796391 -16.45897297 55.9866272 -16.45769465 48.98515552 C-16.45718498 44.80538845 -16.46287076 40.62585671 -16.48405075 36.44613838 C-16.50342705 32.51521007 -16.5035621 28.58474176 -16.48901749 24.65379715 C-16.48692765 23.21306753 -16.4916408 21.77230915 -16.5037384 20.3316288 C-16.51920925 18.36128599 -16.50747556 16.39078608 -16.49447632 14.42042542 C-16.49556585 13.31892434 -16.49665539 12.21742327 -16.49777794 11.08254337 C-15.87320426 7.21480378 -14.41613236 5.05151202 -12 2 C-7.94165437 -0.70556375 -4.75867154 -0.51943246 0 0 Z " fill="#E8E8E8" transform="translate(445,392)"/>
<path d="M0 0 C7.92 0 15.84 0 24 0 C24 32.67 24 65.34 24 99 C37.53 99 51.06 99 65 99 C65 105.93 65 112.86 65 120 C43.55 120 22.1 120 0 120 C0 80.4 0 40.8 0 0 Z " fill="#E8E8E8" transform="translate(590,696)"/>
<path d="M0 0 C7.92 0 15.84 0 24 0 C24 39.6 24 79.2 24 120 C16.08 120 8.16 120 0 120 C0 80.4 0 40.8 0 0 Z " fill="#E7E7E7" transform="translate(256,696)"/>
<path d="M0 0 C7.59 0 15.18 0 23 0 C23 39.6 23 79.2 23 120 C15.41 120 7.82 120 0 120 C0 80.4 0 40.8 0 0 Z " fill="#E8E7E8" transform="translate(673,696)"/>
<path d="M0 0 C4.05941491 2.10488181 6.30183914 3.77497798 8 8 C8.25726891 10.01875782 8.25726891 10.01875782 8.26742554 12.19233704 C8.27595551 13.02072083 8.28448547 13.84910461 8.29327393 14.70259094 C8.29236755 15.60293564 8.29146118 16.50328033 8.29052734 17.4309082 C8.30060318 18.86332352 8.30060318 18.86332352 8.31088257 20.32467651 C8.32988917 23.48343095 8.33378826 26.64197317 8.3359375 29.80078125 C8.34236405 31.99790026 8.3490923 34.19501841 8.35610962 36.39213562 C8.36808939 40.99964379 8.37178977 45.60707696 8.37060547 50.21459961 C8.37040235 56.11271109 8.39769427 62.01034034 8.43214989 67.90833759 C8.45441137 72.44744568 8.45844322 76.98643763 8.45738602 81.52559471 C8.45974349 83.69966479 8.46857523 85.87373801 8.48405075 88.04775429 C8.50369304 91.09248003 8.49787895 94.13616494 8.48583984 97.1809082 C8.49707886 98.07518021 8.50831787 98.96945221 8.51989746 99.89082336 C8.46110012 105.75615814 7.37317851 109.17121759 4 114 C1.088853 116.39129932 -2.24514913 116.47101095 -5.96484375 116.39453125 C-9.61727597 115.68647817 -11.43783808 113.62465368 -14 111 C-15.14280185 108.7143963 -15.1350528 107.42372992 -15.15390015 104.88285828 C-15.16250061 104.02067688 -15.17110107 103.15849548 -15.17996216 102.27018738 C-15.18422211 101.32210709 -15.18848206 100.37402679 -15.19287109 99.3972168 C-15.20104858 98.40033844 -15.20922607 97.40346008 -15.21765137 96.37637329 C-15.24252651 93.06732795 -15.25902611 89.75832554 -15.2734375 86.44921875 C-15.27876118 85.32093973 -15.28408485 84.19266071 -15.28956985 83.03019142 C-15.31630959 77.0592784 -15.3356826 71.08838635 -15.35009766 65.11743164 C-15.36675498 58.94325285 -15.41154006 52.76960685 -15.4624691 46.59562969 C-15.49608691 41.85416535 -15.5076691 37.11282836 -15.51332474 32.37125587 C-15.52005142 30.09502906 -15.53530997 27.81881103 -15.55921555 25.54269981 C-15.59075408 22.35834399 -15.59092052 19.17543712 -15.58349609 15.9909668 C-15.59990143 15.0489592 -15.61630676 14.1069516 -15.63320923 13.13639832 C-15.58948259 8.55981761 -15.5036283 6.63947646 -12.58853149 2.93806458 C-8.4631726 -0.1506411 -5.09230358 -0.69096312 0 0 Z " fill="#E8E8E8" transform="translate(601,418)"/>
<path d="M0 0 C4.24947897 1.79422445 6.07061086 3.85268881 8 8 C8.45094532 11.21123954 8.44065075 14.39737993 8.43579102 17.63623047 C8.44586685 18.60107361 8.45594269 19.56591675 8.46632385 20.55999756 C8.4947935 23.74584578 8.5006799 26.93122004 8.50390625 30.1171875 C8.51354785 32.33529861 8.52364036 34.5534078 8.53416443 36.77151489 C8.5521232 41.42014997 8.55768568 46.06861784 8.5559082 50.71728516 C8.55560334 56.66829901 8.59656384 62.618239 8.64822483 68.56899834 C8.68161278 73.15016587 8.68766503 77.73107448 8.68607903 82.31235123 C8.68961504 84.50597969 8.70286179 86.69961515 8.72607613 88.89312363 C8.75553878 91.96450348 8.74682337 95.03356163 8.72875977 98.10498047 C8.74561829 99.00703217 8.76247681 99.90908386 8.77984619 100.83847046 C8.69447616 106.56314765 7.4842903 109.55478057 3.51576138 113.71133614 C0.80150141 116.01893468 -1.37282607 116.20628162 -4.81640625 116.33984375 C-8.7347841 115.73000677 -10.35053303 113.90795155 -13 111 C-14.69439327 108.16474528 -15.25208413 106.09003126 -15.26742554 102.80093384 C-15.27595551 101.97110489 -15.28448547 101.14127594 -15.29327393 100.28630066 C-15.29236755 99.38438492 -15.29146118 98.48246918 -15.29052734 97.55322266 C-15.29724457 96.59667282 -15.30396179 95.64012299 -15.31088257 94.65458679 C-15.3298874 91.49102592 -15.33378802 88.32767691 -15.3359375 85.1640625 C-15.34236362 82.96454786 -15.34909185 80.76503408 -15.35610962 78.56552124 C-15.36808856 73.95381692 -15.3717898 69.34218754 -15.37060547 64.73046875 C-15.37040223 58.82329124 -15.3977069 52.91659457 -15.43214989 47.00953102 C-15.4543954 42.46617427 -15.45844373 37.92293368 -15.45738602 33.37952805 C-15.45974541 31.20184039 -15.46858793 29.02414969 -15.48405075 26.84651566 C-15.50366296 23.79919074 -15.49789105 20.75290837 -15.48583984 17.70556641 C-15.49707886 16.80769913 -15.50831787 15.90983185 -15.51989746 14.98475647 C-15.46490887 9.50837465 -14.69673329 6.31584525 -11 2 C-7.28612182 -0.47591878 -4.30417439 -0.53907468 0 0 Z " fill="#E8E8E8" transform="translate(483,419)"/>
<path d="M0 0 C3.35721133 2.57148102 5.4202667 5.10685417 7 9 C7.26069641 11.68051147 7.26069641 11.68051147 7.2746582 14.77490234 C7.28895622 16.51723648 7.28895622 16.51723648 7.30354309 18.29476929 C7.30263168 19.5458548 7.30172028 20.79694031 7.30078125 22.0859375 C7.30506638 23.37561432 7.3093515 24.66529114 7.31376648 25.99404907 C7.3212201 28.72263705 7.32094413 31.45109563 7.31567383 34.1796875 C7.3098863 37.66550723 7.32679625 41.15079437 7.3500185 44.63652611 C7.36835158 47.97385164 7.36456935 51.31106195 7.36328125 54.6484375 C7.372491 55.89547455 7.38170074 57.1425116 7.39118958 58.42733765 C7.35403225 65.39411036 7.10982863 70.4117362 2.375 75.875 C-1.38873689 77.65782274 -4.92539036 77.77544474 -9 77 C-12.06881816 75.28095248 -14.40357084 73.19285833 -16 70 C-16.11693128 68.03074097 -16.16973851 66.05755287 -16.19287109 64.08496094 C-16.20893402 62.84317078 -16.22499695 61.60138062 -16.24154663 60.32196045 C-16.25303491 58.95943893 -16.26364331 57.59690975 -16.2734375 56.234375 C-16.27876118 55.54864662 -16.28408485 54.86291824 -16.28956985 54.15641022 C-16.31629899 50.52502053 -16.33567232 46.89366515 -16.35009766 43.26220703 C-16.36342479 40.26091957 -16.39125287 37.260314 -16.43212891 34.25927734 C-16.48152842 30.63237072 -16.50622761 27.00608152 -16.51332474 23.37885284 C-16.52002531 21.99936434 -16.53521664 20.61988897 -16.55921555 19.24059296 C-16.75841785 7.09633952 -16.75841785 7.09633952 -13.59228516 3.16894531 C-9.26253705 -0.45372206 -5.53465056 -0.8617968 0 0 Z " fill="#E7E7E7" transform="translate(407,439)"/>
<path d="M0 0 C3.50625 -0.061875 7.0125 -0.12375 10.625 -0.1875 C11.71893066 -0.21481201 12.81286133 -0.24212402 13.93994141 -0.27026367 C19.36747599 -0.3165635 23.36583994 -0.17113196 28 3 C32.41580241 8.34544503 32.56289239 13.1455573 32.3125 19.96875 C31.92661868 23.71179882 31.35931403 26.03183074 29 29 C22.92632112 33.46546015 17.93568005 33.49750668 10.5625 33.25 C5.3340625 33.12625 5.3340625 33.12625 0 33 C0 22.11 0 11.22 0 0 Z " fill="#0D0D0D" transform="translate(827,718)"/>
<path d="M0 0 C4.61027207 0.13686745 6.80854602 0.22548914 10.5625 3.13671875 C13.60566992 7.25972316 13.6867358 10.1974238 13.73828125 15.18359375 C13.75038887 16.29000214 13.75038887 16.29000214 13.76274109 17.41876221 C13.77658051 18.98227591 13.78730331 20.54581981 13.79516602 22.109375 C13.81233516 24.4888732 13.85621387 26.86696568 13.90039062 29.24609375 C13.91052183 30.76691689 13.9190366 32.28775182 13.92578125 33.80859375 C13.94328934 34.51506042 13.96079742 35.2215271 13.97883606 35.94940186 C13.95682177 41.01958552 12.66105124 43.84722765 9.5 47.76171875 C6.294598 50.11234689 3.40117562 50.1597979 -0.5 49.76171875 C-3.17742239 48.54470857 -4.92887594 47.58253021 -6.61743164 45.15576172 C-7.88653524 41.71320849 -7.84511168 38.33100505 -7.87109375 34.70703125 C-7.88012222 33.92786346 -7.8891507 33.14869568 -7.89845276 32.34591675 C-7.91293498 30.70021393 -7.92183696 29.05445379 -7.92553711 27.40869141 C-7.93742906 24.90167384 -7.98662479 22.39712309 -8.03710938 19.890625 C-8.04657516 18.28777237 -8.05380945 16.68490469 -8.05859375 15.08203125 C-8.07812607 14.33809113 -8.09765839 13.594151 -8.11778259 12.82766724 C-8.08393359 8.88800262 -7.54882528 6.3317879 -5.12133789 3.28930664 C-2.5 0.76171875 -2.5 0.76171875 0 0 Z " fill="#E8E8E8" transform="translate(632.5,452.23828125)"/>
<path d="M0 0 C7.92 0 15.84 0 24 0 C24 39.6 24 79.2 24 120 C16.08 120 8.16 120 0 120 C0 80.4 0 40.8 0 0 Z M2 2 C2 40.28 2 78.56 2 118 C8.6 118 15.2 118 22 118 C22 79.72 22 41.44 22 2 C15.4 2 8.8 2 2 2 Z " fill="#F9F9F8" transform="translate(256,696)"/>
<path d="M0 0 C2.66881103 2.66881103 3.06797715 5.53521688 3.91015625 9.09765625 C4.08252304 9.80595078 4.25488983 10.5142453 4.43247986 11.2440033 C4.79642235 12.74703945 5.15680665 14.25094094 5.51391602 15.75561523 C6.05513764 18.03154006 6.60962978 20.30391284 7.16601562 22.57617188 C7.51903734 24.0414722 7.87127479 25.50696173 8.22265625 26.97265625 C8.46798851 27.97631981 8.46798851 27.97631981 8.71827698 29.0002594 C9.90800274 34.06124386 10.41537769 38.73839919 11 44 C3.74 44 -3.52 44 -11 44 C-7.51514654 29.28218247 -3.93402494 14.6046324 0 0 Z " fill="#0D0D0D" transform="translate(527,726)"/>
<path d="M0 0 C46 0 46 0 51 1 C50.34 1.66 49.68 2.32 49 3 C33.49 2.67 17.98 2.34 2 2 C2 40.28 2 78.56 2 118 C8.6 118 15.2 118 22 118 C21.97679687 114.99132812 21.95359375 111.98265625 21.9296875 108.8828125 C21.91410142 105.97705507 21.90195073 103.07130226 21.89013672 100.16552734 C21.88006329 98.14206873 21.86640405 96.11862472 21.84912109 94.09521484 C21.82493153 91.19104411 21.81353051 88.28706539 21.8046875 85.3828125 C21.79436493 84.47443634 21.78404236 83.56606018 21.77340698 82.63015747 C21.77325592 81.78943695 21.77310486 80.94871643 21.77294922 80.08251953 C21.768508 79.34083527 21.76406677 78.599151 21.75949097 77.83499146 C22 76 22 76 24 74 C26.96875 73.76953125 26.96875 73.76953125 30.5 73.8125 C32.24796875 73.82216797 32.24796875 73.82216797 34.03125 73.83203125 C37 74 37 74 39 75 C38.67 75.66 38.34 76.32 38 77 C31.07 76.505 31.07 76.505 24 76 C24 90.52 24 105.04 24 120 C16.08 120 8.16 120 0 120 C0 80.4 0 40.8 0 0 Z " fill="#F8F8F8" transform="translate(803,696)"/>
<path d="M0 0 C1.23093636 0.00033989 1.23093636 0.00033989 2.48674011 0.00068665 C3.36808121 0.0161705 4.2494223 0.03165436 5.1574707 0.04760742 C6.5161602 0.05397469 6.5161602 0.05397469 7.90229797 0.06047058 C10.79625128 0.07726769 13.68950902 0.11492167 16.58325195 0.15307617 C18.54483044 0.16812168 20.50641984 0.18181032 22.46801758 0.1940918 C27.27753051 0.2271746 32.08652329 0.27896395 36.89575195 0.34057617 C37.39075195 1.33057617 37.39075195 1.33057617 37.89575195 2.34057617 C23.70575195 2.34057617 9.51575195 2.34057617 -5.10424805 2.34057617 C-5.10424805 41.94057617 -5.10424805 81.54057617 -5.10424805 122.34057617 C2.81575195 122.34057617 10.73575195 122.34057617 18.89575195 122.34057617 C18.89575195 107.82057617 18.89575195 93.30057617 18.89575195 78.34057617 C23.51575195 78.34057617 28.13575195 78.34057617 32.89575195 78.34057617 C32.40075195 79.82557617 32.40075195 79.82557617 31.89575195 81.34057617 C28.26575195 81.01057617 24.63575195 80.68057617 20.89575195 80.34057617 C20.90622559 81.60240723 20.91669922 82.86423828 20.92749023 84.16430664 C20.96362095 88.83452531 20.98662712 93.50473157 21.00561523 98.17504883 C21.01568866 100.19850744 21.02934791 102.22195145 21.04663086 104.24536133 C21.07082042 107.14953206 21.08222144 110.05351078 21.09106445 112.95776367 C21.10138702 113.86613983 21.11170959 114.77451599 21.12234497 115.7104187 C21.12249603 116.55113922 21.12264709 117.39185974 21.12280273 118.25805664 C21.12724396 118.99974091 21.13168518 119.74142517 21.13626099 120.50558472 C20.89575195 122.34057617 20.89575195 122.34057617 18.89575195 124.34057617 C16.49731445 124.59936523 16.49731445 124.59936523 13.52075195 124.60620117 C12.4534082 124.6087793 11.38606445 124.61135742 10.28637695 124.61401367 C8.60801758 124.60241211 8.60801758 124.60241211 6.89575195 124.59057617 C5.7768457 124.59831055 4.65793945 124.60604492 3.50512695 124.61401367 C2.4377832 124.61143555 1.37043945 124.60885742 0.27075195 124.60620117 C-0.71151367 124.60394531 -1.6937793 124.60168945 -2.70581055 124.59936523 C-5.10424805 124.34057617 -5.10424805 124.34057617 -7.10424805 122.34057617 C-7.35872364 120.24439335 -7.35872364 120.24439335 -7.36494446 117.60255432 C-7.37557167 116.10300705 -7.37557167 116.10300705 -7.38641357 114.57316589 C-7.38393616 113.4723317 -7.38145874 112.3714975 -7.37890625 111.23730469 C-7.38401718 110.08115662 -7.38912811 108.92500854 -7.39439392 107.73382568 C-7.40834298 103.89565923 -7.40732915 100.05767127 -7.4050293 96.21948242 C-7.40793234 94.23281744 -7.41083951 92.24615237 -7.41443604 90.25948852 C-7.42554005 84.01037636 -7.42596373 77.7613243 -7.41992188 71.51220703 C-7.41388109 65.0615091 -7.42619352 58.61102923 -7.44749194 52.1603685 C-7.46509528 46.62570571 -7.4711113 41.09111241 -7.4678542 35.55642265 C-7.46603904 32.24919569 -7.47000701 28.9421593 -7.48256874 25.63495064 C-7.49485473 21.94754182 -7.48818825 18.26064237 -7.4765625 14.57324219 C-7.48420624 13.47443222 -7.49184998 12.37562225 -7.49972534 11.24351501 C-7.49271103 10.24099701 -7.48569672 9.238479 -7.47846985 8.20558167 C-7.47863759 7.33339776 -7.47880533 6.46121386 -7.47897816 5.56260014 C-6.73678743 1.16165787 -4.18229645 -0.03860581 0 0 Z " fill="#030303" transform="translate(808.104248046875,693.659423828125)"/>
<path d="M0 0 C2.75569447 2.18159145 4.43588747 3.87177494 6 7 C6.52802088 11.81278044 6.85640895 16.38923205 4.125 20.5625 C1.98764509 23.01417181 1.17941521 23.85865555 -1.98828125 24.23828125 C-6.15410332 24.3713075 -8.37869331 24.38831668 -12 22.125 C-15.81326975 18.07340089 -15.32516368 14.29980214 -15.29296875 8.9296875 C-14.92088586 5.20885855 -13.83493639 3.41803398 -11 1 C-7.52736727 -0.73631636 -3.78806987 -0.60190402 0 0 Z " fill="#EAEAEA" transform="translate(370,467)"/>
<path d="M0 0 C3.0625 2.25 3.0625 2.25 5 5 C5.3125 7.8125 5.3125 7.8125 5 10 C4.34 9.34 3.68 8.68 3 8 C2.5875 8.45375 2.175 8.9075 1.75 9.375 C0 11 0 11 -2.125 12 C-4.3530435 12.91202978 -4.3530435 12.91202978 -5 16 C-10.22222222 19 -10.22222222 19 -13 19 C-14.34367402 21.68734805 -14.14014612 23.77291021 -14.15821838 26.78323364 C-14.1680072 28.01444946 -14.17779602 29.24566528 -14.18788147 30.51419067 C-14.19378603 31.8859249 -14.19959645 33.25765954 -14.20532227 34.62939453 C-14.21489831 36.06809777 -14.22490823 37.50679818 -14.23532104 38.94549561 C-14.26240588 42.85845745 -14.28339603 46.7714314 -14.30332303 50.68443537 C-14.32516055 54.77108127 -14.35256015 58.85768972 -14.37937927 62.94430542 C-14.42933643 70.68614879 -14.47426402 78.42801292 -14.51740164 86.16989696 C-14.56674821 94.98237594 -14.62167589 103.79481734 -14.67708123 112.60725999 C-14.79094767 130.73813845 -14.89777653 148.86905235 -15 167 C-15.33 167 -15.66 167 -16 167 C-16.11680438 146.11189986 -16.20497403 125.22385357 -16.25906086 104.33549309 C-16.28484191 94.63663694 -16.31999056 84.93798371 -16.37719727 75.23925781 C-16.42703524 66.78578275 -16.45929174 58.33245465 -16.47044247 49.87883675 C-16.47696058 45.40268074 -16.49227774 40.92694517 -16.52865028 36.45092392 C-16.56261613 32.23688568 -16.57305189 28.02344061 -16.56553841 23.80927849 C-16.5669127 22.26371092 -16.57684218 20.71812329 -16.59602737 19.17267418 C-16.75111806 6.03374753 -16.75111806 6.03374753 -13.58952332 2.09622192 C-9.00915172 -1.61159383 -5.61355741 -1.4130679 0 0 Z " fill="#F1F1F2" transform="translate(525,325)"/>
<path d="M0 0 C2.97 0.495 2.97 0.495 6 1 C6 1.66 6 2.32 6 3 C4.68 2.67 3.36 2.34 2 2 C2.00607553 2.66315562 2.01215105 3.32631124 2.01841068 4.00956249 C2.16631343 20.19541646 2.30802374 36.38131186 2.4429636 52.56727886 C2.50836833 60.39489851 2.57581761 68.22249028 2.64819336 76.05004883 C2.71131972 82.87784494 2.77049452 89.70566232 2.82505554 96.53353244 C2.85404107 100.14400231 2.884916 103.75443233 2.92053413 107.36484337 C2.96036139 111.4094533 2.99136038 115.45408727 3.02172852 119.4987793 C3.03467453 120.67698746 3.04762054 121.85519562 3.06095886 123.06910706 C3.10929639 130.76058341 2.70470429 138.34119397 2 146 C4.97 145.01 7.94 144.02 11 143 C11 143.66 11 144.32 11 145 C9.5437455 145.67119549 8.08492133 146.33681807 6.625 147 C5.81289063 147.37125 5.00078125 147.7425 4.1640625 148.125 C2 149 2 149 0 149 C0 99.83 0 50.66 0 0 Z " fill="#F8F8F9" transform="translate(758,446)"/>
<path d="M0 0 C24.09 0 48.18 0 73 0 C73 5.28 73 10.56 73 16 C72.01 16.99 71.02 17.98 70 19 C70.33 13.39 70.66 7.78 71 2 C48.23 2.33 25.46 2.66 2 3 C2 8.61 2 14.22 2 20 C16.19 20 30.38 20 45 20 C45 20.33 45 20.66 45 21 C30.15 21 15.3 21 0 21 C0 14.07 0 7.14 0 0 Z " fill="#F9F9F9" transform="translate(299,696)"/>
<path d="M0 0 C0.33 0.66 0.66 1.32 1 2 C16.18 2 31.36 2 47 2 C47 8.93 47 15.86 47 23 C22.91 23 -1.18 23 -26 23 C-26 17.06 -26 11.12 -26 5 C-25.34 4.67 -24.68 4.34 -24 4 C-24 9.61 -24 15.22 -24 21 C-1.23 21 21.54 21 45 21 C45.33 15.06 45.66 9.12 46 3 C30.82 3 15.64 3 0 3 C0 2.01 0 1.02 0 0 Z " fill="#FBFBFB" transform="translate(739,793)"/>
<path d="M0 0 C-2 2 -2 2 -4.5 2.9375 C-7.30191747 3.8583474 -7.30191747 3.8583474 -9 7 C-9.95174856 11.93330869 -10.14134509 16.78121588 -10.12025452 21.78916931 C-10.12110894 22.54244037 -10.12196337 23.29571142 -10.12284368 24.07180887 C-10.12448205 26.57906591 -10.11900418 29.08625505 -10.11352539 31.59350586 C-10.11324314 33.39747109 -10.113402 35.20143644 -10.1139679 37.00540161 C-10.11425438 41.89120502 -10.10838163 46.77698379 -10.10139394 51.66278148 C-10.0951357 56.77303489 -10.09455464 61.88328888 -10.09336853 66.99354553 C-10.0902625 76.66541852 -10.08205892 86.33728018 -10.07201904 96.00914818 C-10.0608353 107.02240052 -10.05534175 118.03565341 -10.05032361 129.04891002 C-10.03987571 151.69927962 -10.02229036 174.34963918 -10 197 C-10.66 196.67 -11.32 196.34 -12 196 C-12.07004776 171.57421917 -12.12296743 147.14845336 -12.15543652 122.72259235 C-12.17091246 111.38151507 -12.19201592 100.04050015 -12.22631836 88.69946289 C-12.25619839 78.81585419 -12.27556971 68.93229066 -12.28226548 59.04863805 C-12.2861801 53.81419643 -12.29539518 48.57988403 -12.31719017 43.34548378 C-12.33753321 38.41994425 -12.3438382 33.49458733 -12.33932304 28.56900978 C-12.34014922 26.76019804 -12.34612783 24.95138027 -12.35761642 23.14260483 C-12.37252648 20.67433804 -12.36895921 18.20676215 -12.36076355 15.73847961 C-12.36950207 15.02154554 -12.3782406 14.30461147 -12.38724393 13.56595212 C-12.34796772 9.19436227 -11.62421656 6.50461628 -9 3 C-6.02337911 0.12259981 -4.10147025 -0.34178919 0 0 Z " fill="#FDFDFD" transform="translate(559,375)"/>
<path d="M0 0 C7.92 0 15.84 0 24 0 C22 2 22 2 19.93701172 2.22705078 C18.69588623 2.21134033 18.69588623 2.21134033 17.4296875 2.1953125 C16.21901611 2.18781982 16.21901611 2.18781982 14.98388672 2.18017578 C13.44498779 2.15286377 13.44498779 2.15286377 11.875 2.125 C10.11345279 2.10201871 8.35189597 2.07976678 6.59033203 2.05810547 C5.06022135 2.03873698 3.53011068 2.01936849 2 2 C2.00580078 3.11785889 2.01160156 4.23571777 2.01757812 5.38745117 C2.07389039 21.94033217 1.80301985 38.48701889 1.53643799 55.03704834 C1.47490685 58.87949772 1.41527958 62.72197665 1.35546875 66.56445312 C1.23879104 74.04299809 1.12008291 81.52150886 1 89 C0.67 89 0.34 89 0 89 C0 59.63 0 30.26 0 0 Z " fill="#E0DFDF" transform="translate(389,696)"/>
<path d="M0 0 C7.26 0 14.52 0 22 0 C22.33 0.66 22.66 1.32 23 2 C16.07 2 9.14 2 2 2 C2 11.57 2 21.14 2 31 C9.26 30.67 16.52 30.34 24 30 C24 30.66 24 31.32 24 32 C21.49502996 33.25248502 19.79146726 33.11374406 16.9921875 33.09765625 C16.1038623 33.09515869 15.21553711 33.09266113 14.30029297 33.09008789 C13.16994629 33.08098389 12.03959961 33.07187988 10.875 33.0625 C5.491875 33.0315625 5.491875 33.0315625 0 33 C0 22.11 0 11.22 0 0 Z " fill="#030203" transform="translate(827,718)"/>
<path d="M0 0 C0.33 0 0.66 0 1 0 C1.80395025 4.22282518 2.11811363 8.19613764 2.09765625 12.4921875 C2.09443359 13.69101562 2.09121094 14.88984375 2.08789062 16.125 C2.07951172 17.3625 2.07113281 18.6 2.0625 19.875 C2.05798828 21.13570312 2.05347656 22.39640625 2.04882812 23.6953125 C2.0370796 26.79692386 2.02065167 29.89843725 2 33 C5.54193375 32.86024595 9.08346999 32.71211066 12.625 32.5625 C13.62402344 32.52318359 14.62304688 32.48386719 15.65234375 32.44335938 C20.50956104 32.23427386 25.22132044 31.97041445 30 31 C24.39216454 35.96077753 17.26378902 35.1571406 10.1875 35.125 C9.31673828 35.12886719 8.44597656 35.13273438 7.54882812 35.13671875 C6.72189453 35.13542969 5.89496094 35.13414062 5.04296875 35.1328125 C4.29039795 35.13168457 3.53782715 35.13055664 2.76245117 35.12939453 C1 35 1 35 0 34 C-0.08847743 31.47905924 -0.11527301 28.98569107 -0.09765625 26.46484375 C-0.0962413 25.71159317 -0.09482635 24.95834259 -0.09336853 24.18226624 C-0.08775376 21.7673044 -0.07519883 19.35243399 -0.0625 16.9375 C-0.0574869 15.30403779 -0.05292366 13.67057414 -0.04882812 12.03710938 C-0.03777954 8.02470415 -0.02050506 4.01236759 0 0 Z " fill="#F7F8F8" transform="translate(825,718)"/>
<path d="M0 0 C0.33 12.87 0.66 25.74 1 39 C0.34 38.67 -0.32 38.34 -1 38 C-1 37.01 -1 36.02 -1 35 C-1.66 35 -2.32 35 -3 35 C-3 23.78 -3 12.56 -3 1 C-1 0 -1 0 0 0 Z " fill="#171616" transform="translate(625,459)"/>
<path d="M0 0 C0.66 0.33 1.32 0.66 2 1 C1.67 2.32 1.34 3.64 1 5 C1 9.95 1 14.9 1 20 C14.2 20 27.4 20 41 20 C41 20.33 41 20.66 41 21 C27.47 21 13.94 21 0 21 C0 21.66 0 22.32 0 23 C-0.66 23 -1.32 23 -2 23 C-2.0580476 19.72924117 -2.09361165 16.45861476 -2.125 13.1875 C-2.14175781 12.25873047 -2.15851563 11.32996094 -2.17578125 10.37304688 C-2.18222656 9.48037109 -2.18867188 8.58769531 -2.1953125 7.66796875 C-2.20578613 6.84578857 -2.21625977 6.0236084 -2.22705078 5.17651367 C-2 3 -2 3 0 0 Z " fill="#D5D6D5" transform="translate(300,793)"/>
<path d="M0 0 C2 3 2 3 2 9 C-4.6 9 -11.2 9 -18 9 C-18 9.99 -18 10.98 -18 12 C-18.99 12 -19.98 12 -21 12 C-22.20628008 9.66785852 -23.1654738 7.50357861 -24 5 C-16.08 5.33 -8.16 5.66 0 6 C0 4.02 0 2.04 0 0 Z " fill="#DDDDDD" transform="translate(538,764)"/>
<path d="M0 0 C0.89589844 0.09345703 1.79179688 0.18691406 2.71484375 0.28320312 C4.12056641 0.43885742 4.12056641 0.43885742 5.5546875 0.59765625 C6.49957031 0.69755859 7.44445312 0.79746094 8.41796875 0.90039062 C10.75582805 1.1483454 13.0929564 1.4018194 15.4296875 1.66015625 C15.4296875 2.32015625 15.4296875 2.98015625 15.4296875 3.66015625 C16.0896875 3.33015625 16.7496875 3.00015625 17.4296875 2.66015625 C19.42928762 2.62016425 21.43015992 2.61668826 23.4296875 2.66015625 C22.7696875 2.99015625 22.1096875 3.32015625 21.4296875 3.66015625 C21.4296875 4.32015625 21.4296875 4.98015625 21.4296875 5.66015625 C17.22101608 5.35210625 13.01282338 5.03793104 8.8046875 4.72265625 C7.01998047 4.59213867 7.01998047 4.59213867 5.19921875 4.45898438 C4.04550781 4.37197266 2.89179687 4.28496094 1.703125 4.1953125 C0.64528809 4.11676025 -0.41254883 4.03820801 -1.50244141 3.95727539 C-4.5587084 3.66128009 -7.5485756 3.20074221 -10.5703125 2.66015625 C-4.3203125 -0.46484375 -4.3203125 -0.46484375 0 0 Z " fill="#E5E5E5" transform="translate(524.5703125,209.33984375)"/>
<path d="M0 0 C1.00023193 0.00523682 2.00046387 0.01047363 3.03100586 0.01586914 C4.1105957 0.0190918 5.19018555 0.02231445 6.30249023 0.02563477 C8.00695312 0.03820312 8.00695312 0.03820312 9.74584961 0.05102539 C11.45611328 0.05779297 11.45611328 0.05779297 13.20092773 0.06469727 C16.02845312 0.07652792 18.85587601 0.09301129 21.68334961 0.11352539 C21.02334961 1.43352539 20.36334961 2.75352539 19.68334961 4.11352539 C19.68334961 3.45352539 19.68334961 2.79352539 19.68334961 2.11352539 C12.75334961 2.11352539 5.82334961 2.11352539 -1.31665039 2.11352539 C-2.63665039 7.39352539 -3.95665039 12.67352539 -5.31665039 18.11352539 C-6.41195592 13.73230328 -5.99583319 11.74430631 -4.94165039 7.42602539 C-4.66579102 6.2671582 -4.38993164 5.10829102 -4.10571289 3.91430664 C-3.04497616 0.14921635 -3.04497616 0.14921635 0 0 Z " fill="#F6F6F6" transform="translate(218.316650390625,695.886474609375)"/>
<path d="M0 0 C0.95455078 -0.00128906 1.90910156 -0.00257813 2.89257812 -0.00390625 C3.89353516 -0.00003906 4.89449219 0.00382813 5.92578125 0.0078125 C6.90740234 0.00394531 7.88902344 0.00007812 8.90039062 -0.00390625 C14.12131435 0.003097 19.0946628 0.22638463 24.23828125 1.1328125 C21.03451795 3.01947311 18.65524089 3.38934141 14.95703125 3.3984375 C13.95027344 3.40101563 12.94351563 3.40359375 11.90625 3.40625 C10.86082031 3.39851562 9.81539062 3.39078125 8.73828125 3.3828125 C7.17013672 3.39441406 7.17013672 3.39441406 5.5703125 3.40625 C4.06017578 3.40238281 4.06017578 3.40238281 2.51953125 3.3984375 C1.60236328 3.39618164 0.68519531 3.39392578 -0.25976562 3.39160156 C-2.87111797 3.12149681 -4.51567498 2.45548272 -6.76171875 1.1328125 C-4.32129091 -0.08740142 -2.72561009 0.00354732 0 0 Z " fill="#191919" transform="translate(502.76171875,211.8671875)"/>
<path d="M0 0 C0.36407959 0.48823242 0.72815918 0.97646484 1.10327148 1.47949219 C3.83990697 3.67330938 5.87517819 3.35647775 9.34765625 3.328125 C10.59224609 3.32296875 11.83683594 3.3178125 13.11914062 3.3125 C14.42044922 3.291875 15.72175781 3.27125 17.0625 3.25 C18.36767578 3.24484375 19.67285156 3.2396875 21.01757812 3.234375 C27.19247239 3.51450304 27.19247239 3.51450304 33 2 C32.34 3.32 31.68 4.64 31 6 C21.43 6 11.86 6 2 6 C1.34 4.02 0.68 2.04 0 0 Z " fill="#020202" transform="translate(176,812)"/>
<path d="M0 0 C0.33 0 0.66 0 1 0 C1.94599642 5.56094387 2.13181599 10.91268402 2.09765625 16.546875 C2.0962413 17.43989319 2.09482635 18.33291138 2.09336853 19.25299072 C2.08780739 22.08536236 2.07527135 24.91765262 2.0625 27.75 C2.05747914 29.66796759 2.05291726 31.58593644 2.04882812 33.50390625 C2.0406787 37.00489916 2.03002908 40.50586217 2.01586914 44.00683594 C2.0066054 46.33787822 2 48.66893931 2 51 C1.84626937 52.89692612 1.67833145 54.79272833 1.5 56.6875 C1.4071875 57.68136719 1.314375 58.67523437 1.21875 59.69921875 C1.1465625 60.45847656 1.074375 61.21773437 1 62 C0.67 62 0.34 62 0 62 C0 41.54 0 21.08 0 0 Z " fill="#DDDDDE" transform="translate(592,713)"/>
<path d="M0 0 C1.2062252 3.61867559 1.10816918 6.92506251 1.0625 10.6875 C1.05798828 11.38939453 1.05347656 12.09128906 1.04882812 12.81445312 C1.03706927 14.54300538 1.01913454 16.27151365 1 18 C1.66 18 2.32 18 3 18 C4.625 19.5 4.625 19.5 6 21 C4.44165785 24.82502165 1.92784104 27.14783821 -1 30 C-1.02465746 25.8882744 -1.04283959 21.77657722 -1.05493164 17.66479492 C-1.0599708 16.26504772 -1.06680216 14.8653058 -1.07543945 13.46557617 C-1.0875232 11.45754223 -1.09269807 9.44947043 -1.09765625 7.44140625 C-1.10289307 6.23170166 -1.10812988 5.02199707 -1.11352539 3.77563477 C-1 1 -1 1 0 0 Z " fill="#F4F3F3" transform="translate(269,405)"/>
<path d="M0 0 C2 2 2 2 2.22705078 4.88916016 C2.21657715 6.09362793 2.20610352 7.2980957 2.1953125 8.5390625 C2.18886719 9.84101563 2.18242188 11.14296875 2.17578125 12.484375 C2.15906929 13.86458595 2.14213939 15.24479429 2.125 16.625 C2.11497006 18.01301452 2.10584423 19.40103589 2.09765625 20.7890625 C2.07401863 24.19288026 2.04106867 27.59635506 2 31 C1.34 31 0.68 31 0 31 C-1.10961564 27.48808517 -1.03443358 24.36665772 -0.87890625 20.703125 C-0.83056641 19.49785156 -0.78222656 18.29257812 -0.73242188 17.05078125 C-0.67634766 15.79652344 -0.62027344 14.54226563 -0.5625 13.25 C-0.51029297 11.98027344 -0.45808594 10.71054687 -0.40429688 9.40234375 C-0.27468016 6.26797593 -0.13971529 3.13393126 0 0 Z " fill="#D2D2D2" transform="translate(755,404)"/>
<path d="M0 0 C0.66 0 1.32 0 2 0 C2.66 1.65 3.32 3.3 4 5 C-4.25 5 -12.5 5 -21 5 C-21.33 3.68 -21.66 2.36 -22 1 C-21.01 1.495 -21.01 1.495 -20 2 C-18.40737934 2.15175549 -16.80935144 2.24900325 -15.2109375 2.31640625 C-14.26992188 2.35830078 -13.32890625 2.40019531 -12.359375 2.44335938 C-11.37453125 2.48267578 -10.3896875 2.52199219 -9.375 2.5625 C-8.38242187 2.60568359 -7.38984375 2.64886719 -6.3671875 2.69335938 C-3.91160162 2.79961069 -1.45591297 2.90164964 1 3 C0.67 2.01 0.34 1.02 0 0 Z " fill="#F8F8F8" transform="translate(879,811)"/>
<path d="M0 0 C1.051875 -0.02126953 1.051875 -0.02126953 2.125 -0.04296875 C4 0.1875 4 0.1875 6 2.1875 C6.125 5.3125 6.125 5.3125 6 8.1875 C4.33333333 8.1875 2.66666667 8.1875 1 8.1875 C0.67 6.5375 0.34 4.8875 0 3.1875 C-1.65 3.1875 -3.3 3.1875 -5 3.1875 C-5.33 4.5075 -5.66 5.8275 -6 7.1875 C-6.66 7.1875 -7.32 7.1875 -8 7.1875 C-7.39816251 5.16704558 -6.72693904 3.16638961 -6 1.1875 C-3.77109005 0.07304502 -2.46944894 0.02269714 0 0 Z " fill="#EEEEEE" transform="translate(597,417.8125)"/>
<path d="M0 0 C0.99 0.495 0.99 0.495 2 1 C2 1.66 2 2.32 2 3 C9.59 3 17.18 3 25 3 C25 3.66 25 4.32 25 5 C16.75 5 8.5 5 0 5 C0 3.35 0 1.7 0 0 Z " fill="#F8F7F7" transform="translate(550,811)"/>
<path d="M0 0 C0.66 0.33 1.32 0.66 2 1 C1.68872484 2.58357459 1.37592711 4.16684993 1.0625 5.75 C0.88847656 6.63171875 0.71445312 7.5134375 0.53515625 8.421875 C-0.26530838 12.27812795 -1.13250584 15.5140109 -3 19 C-3 18.34 -3 17.68 -3 17 C-3.66 17 -4.32 17 -5 17 C-4.35841048 14.35307023 -3.71195217 11.70750071 -3.0625 9.0625 C-2.88009766 8.30775391 -2.69769531 7.55300781 -2.50976562 6.77539062 C-1.11328125 1.11328125 -1.11328125 1.11328125 0 0 Z " fill="#E2E2E2" transform="translate(489,783)"/>
<path d="M0 0 C4.35583555 1.63343833 6.95951435 4.8858983 10 8.25 C10.52078125 8.81074219 11.0415625 9.37148438 11.578125 9.94921875 C14.77231789 13.44185896 17.4762196 16.99592532 20 21 C19.34 21.66 18.68 22.32 18 23 C17.54625 22.21625 17.0925 21.4325 16.625 20.625 C15.11571258 17.96301969 15.11571258 17.96301969 13 16 C12.05620347 14.90121049 11.11938061 13.79641334 10.1875 12.6875 C8.25403618 10.40724783 6.28427195 8.25449537 4.125 6.1875 C2 4 2 4 2 2 C1.34 2 0.68 2 0 2 C0 1.34 0 0.68 0 0 Z " fill="#0F0F0F" transform="translate(662,273)"/>
<path d="M0 0 C3.96 0 7.92 0 12 0 C11.67 0.66 11.34 1.32 11 2 C11.99 2.66 12.98 3.32 14 4 C13.01 5.485 13.01 5.485 12 7 C11.01 7 10.02 7 9 7 C8.67 7.66 8.34 8.32 8 9 C7.4375 7.0625 7.4375 7.0625 7 5 C7.33 4.67 7.66 4.34 8 4 C5.03 3.67 2.06 3.34 -1 3 C-0.67 2.01 -0.34 1.02 0 0 Z " fill="#DFDFE0" transform="translate(306,421)"/>
<path d="M0 0 C0.33 0 0.66 0 1 0 C1.99418527 8.48881273 1.89073566 16.50375215 1 25 C3.97 24.01 6.94 23.02 10 22 C10 22.66 10 23.32 10 24 C8.5437455 24.67119549 7.08492133 25.33681807 5.625 26 C4.40683594 26.556875 4.40683594 26.556875 3.1640625 27.125 C1 28 1 28 -1 28 C-0.67 18.76 -0.34 9.52 0 0 Z " fill="#F1F1F1" transform="translate(759,567)"/>
<path d="M0 0 C2.3828125 -0.29296875 2.3828125 -0.29296875 5.125 -0.1875 C6.03507812 -0.16042969 6.94515625 -0.13335937 7.8828125 -0.10546875 C8.58148438 -0.07066406 9.28015625 -0.03585938 10 0 C10 0.33 10 0.66 10 1 C15.28 1.33 20.56 1.66 26 2 C26 2.33 26 2.66 26 3 C16.76 3 7.52 3 -2 3 C-1.34 2.01 -0.68 1.02 0 0 Z " fill="#3A3A3B" transform="translate(494,180)"/>
<path d="M0 0 C0.99 0 1.98 0 3 0 C3 0.66 3 1.32 3 2 C4.134375 2.103125 5.26875 2.20625 6.4375 2.3125 C11.19397351 2.89110501 15.51898346 4.35073697 20 6 C20 6.66 20 7.32 20 8 C13.33333333 6.33333333 6.66666667 4.66666667 0 3 C0 2.01 0 1.02 0 0 Z " fill="#181818" transform="translate(570,187)"/>
<path d="M0 0 C0.99 0 1.98 0 3 0 C3 0.99 3 1.98 3 3 C2.34 3 1.68 3 1 3 C1.226875 3.721875 1.45375 4.44375 1.6875 5.1875 C2.09170575 8.82535172 1.13932004 10.09663709 -1 13 C-1.99 13.99 -2.98 14.98 -4 16 C-2.68 10.72 -1.36 5.44 0 0 Z " fill="#1A1A1A" transform="translate(238,702)"/>
<path d="M0 0 C0.33 0 0.66 0 1 0 C1.99 5.28 2.98 10.56 4 16 C3.01 16.33 2.02 16.66 1 17 C0.63826036 14.54256214 0.28531831 12.08441207 -0.0625 9.625 C-0.16626953 8.92632813 -0.27003906 8.22765625 -0.37695312 7.5078125 C-1.11328125 2.2265625 -1.11328125 2.2265625 0 0 Z " fill="#151515" transform="translate(534,752)"/>
<path d="M0 0 C3 2 3 2 3.40625 3.98828125 C3.45265625 5.13876953 3.45265625 5.13876953 3.5 6.3125 C3.79958553 10.26447931 4.59147597 12.75372848 7 16 C6.01 16 5.02 16 4 16 C2 13 2 13 2 10 C1.34 10 0.68 10 0 10 C0 6.7 0 3.4 0 0 Z " fill="#191919" transform="translate(352,474)"/>
<path d="M0 0 C-2 2 -2 2 -4.5 2.9375 C-7.30191747 3.8583474 -7.30191747 3.8583474 -9 7 C-9.39387788 9.32387947 -9.73486085 11.65793749 -10 14 C-10.66 13.34 -11.32 12.68 -12 12 C-12 8.67043781 -11.88184807 6.1218447 -9.765625 3.4296875 C-6.59011556 0.56518156 -4.25143112 -0.62521046 0 0 Z " fill="#F3F3F4" transform="translate(559,375)"/>
<path d="M0 0 C1.89492188 0.15275391 1.89492188 0.15275391 3.828125 0.30859375 C4.79234375 0.39238281 5.7565625 0.47617188 6.75 0.5625 C6.75 0.8925 6.75 1.2225 6.75 1.5625 C1.49201496 2.45747618 -3.9216379 3.20277162 -9.25 2.5625 C-9.91 1.9025 -10.57 1.2425 -11.25 0.5625 C-7.43483536 -0.73812431 -3.97438237 -0.33119853 0 0 Z " fill="#EFEFEE" transform="translate(487.25,211.4375)"/>
<path d="M0 0 C0.99 0.33 1.98 0.66 3 1 C3.03738281 1.61488281 3.07476563 2.22976563 3.11328125 2.86328125 C3.17902344 3.67152344 3.24476563 4.47976563 3.3125 5.3125 C3.37050781 6.11300781 3.42851563 6.91351563 3.48828125 7.73828125 C4.08206694 10.36272334 4.95780294 11.30820672 7 13 C6.01 13.33 5.02 13.66 4 14 C4 13.34 4 12.68 4 12 C3.34 12 2.68 12 2 12 C-0.13586678 8.79619983 -0.23132175 7.98060033 -0.125 4.3125 C-0.10695313 3.50425781 -0.08890625 2.69601562 -0.0703125 1.86328125 C-0.04710937 1.24839844 -0.02390625 0.63351562 0 0 Z " fill="#1B1B1B" transform="translate(724,401)"/>
<path d="M0 0 C1.23556641 0.01740234 1.23556641 0.01740234 2.49609375 0.03515625 C3.32238281 0.04417969 4.14867187 0.05320312 5 0.0625 C5.63808594 0.07410156 6.27617187 0.08570313 6.93359375 0.09765625 C6.93359375 0.75765625 6.93359375 1.41765625 6.93359375 2.09765625 C7.92359375 2.42765625 8.91359375 2.75765625 9.93359375 3.09765625 C9.60359375 3.75765625 9.27359375 4.41765625 8.93359375 5.09765625 C7.49448035 4.81405738 6.05733857 4.52044226 4.62109375 4.22265625 C3.82058594 4.06023437 3.02007812 3.8978125 2.1953125 3.73046875 C-0.06640625 3.09765625 -0.06640625 3.09765625 -3.06640625 1.09765625 C-2.06640625 0.09765625 -2.06640625 0.09765625 0 0 Z " fill="#161616" transform="translate(438.06640625,388.90234375)"/>
<path d="M0 0 C-2 3 -2 3 -5 4 C-6.39439664 4.06665376 -7.79169875 4.08538199 -9.1875 4.0625 C-11.0746875 4.0315625 -11.0746875 4.0315625 -13 4 C-10.59615787 0.69471707 -7.61485854 0.1623116 -3.83984375 -0.765625 C-2 -1 -2 -1 0 0 Z " fill="#141414" transform="translate(324,612)"/>
<path d="M0 0 C1.32 0 2.64 0 4 0 C3.67 3.63 3.34 7.26 3 11 C2.34 11 1.68 11 1 11 C0.67 7.37 0.34 3.74 0 0 Z " fill="#1A191A" transform="translate(191,774)"/>
<path d="M0 0 C1.38317955 3.84216542 0.9279297 7.07414359 0 11 C-2.05078125 12.71484375 -2.05078125 12.71484375 -4 14 C-3.52525225 11.85318469 -3.04508251 9.70756772 -2.5625 7.5625 C-2.29566406 6.36753906 -2.02882813 5.17257812 -1.75390625 3.94140625 C-1 1 -1 1 0 0 Z " fill="#171718" transform="translate(524,740)"/>
<path d="M0 0 C0.99 0 1.98 0 3 0 C3 4.29 3 8.58 3 13 C-0.01111938 8.48332093 -0.10067926 5.3360009 0 0 Z " fill="#141414" transform="translate(856,728)"/>
<path d="M0 0 C0.99 0.495 0.99 0.495 2 1 C2.4140625 3.06640625 2.4140625 3.06640625 2.625 5.5625 C2.69976562 6.38878906 2.77453125 7.21507812 2.8515625 8.06640625 C2.92503906 9.02353516 2.92503906 9.02353516 3 10 C-0.00617269 6.99382731 0.40414684 4.17618402 0 0 Z M2 0 C3.65 0 5.3 0 7 0 C6.67 0.99 6.34 1.98 6 3 C5.01 3.33 4.02 3.66 3 4 C2.67 2.68 2.34 1.36 2 0 Z " fill="#F3F3F2" transform="translate(147,699)"/>
<path d="M0 0 C0.98484375 0.01804688 1.9696875 0.03609375 2.984375 0.0546875 C4.10585938 0.08949219 4.10585938 0.08949219 5.25 0.125 C4.26 0.62 4.26 0.62 3.25 1.125 C3.25 1.785 3.25 2.445 3.25 3.125 C-1.04 2.795 -5.33 2.465 -9.75 2.125 C-5.76219998 0.13109999 -4.27852428 -0.10186963 0 0 Z " fill="#D1D1D0" transform="translate(542.75,211.875)"/>
<path d="M0 0 C0.99 0 1.98 0 3 0 C3.18451025 9.41002278 3.18451025 9.41002278 2 14 C1.67 14 1.34 14 1 14 C0.67 9.38 0.34 4.76 0 0 Z " fill="#202020" transform="translate(754,386)"/>
<path d="M0 0 C0.99 0 1.98 0 3 0 C3.66 3.63 4.32 7.26 5 11 C4.34 11 3.68 11 3 11 C2.49384702 9.73160474 1.99530901 8.46016898 1.5 7.1875 C1.2215625 6.47980469 0.943125 5.77210938 0.65625 5.04296875 C0 3 0 3 0 0 Z " fill="#DFDFE0" transform="translate(746,360)"/>
<path d="M0 0 C0.99 0 1.98 0 3 0 C3.66 2.97 4.32 5.94 5 9 C4.01 9 3.02 9 2 9 C1.34 6.03 0.68 3.06 0 0 Z " fill="#171717" transform="translate(171,797)"/>
<path d="M0 0 C0.66 0 1.32 0 2 0 C2.33 3.63 2.66 7.26 3 11 C2.34 11 1.68 11 1 11 C0.4254048 7.26513121 0 3.78706732 0 0 Z " fill="#181717" transform="translate(722,382)"/>
<path d="M0 0 C1.9451 2.91765 2.45276317 4.62537285 3 8 C3.66 8 4.32 8 5 8 C5 9.32 5 10.64 5 12 C4.34 12 3.68 12 3 12 C2.29773859 10.75823305 1.61370891 9.50614401 0.9375 8.25 C0.36322266 7.20585937 0.36322266 7.20585937 -0.22265625 6.140625 C-1.1312406 3.63859372 -0.88336837 2.4667645 0 0 Z " fill="#181818" transform="translate(730,308)"/>
<path d="M0 0 C-0.33 0.99 -0.66 1.98 -1 3 C-7.625 4.125 -7.625 4.125 -11 3 C-7.25667087 0.99464511 -4.26323685 0 0 0 Z " fill="#181818" transform="translate(462,218)"/>
<path d="M0 0 C0.66 0.33 1.32 0.66 2 1 C2 2.98 2 4.96 2 7 C1.34 7 0.68 7 0 7 C-0.12375 7.804375 -0.2475 8.60875 -0.375 9.4375 C-0.58125 10.283125 -0.7875 11.12875 -1 12 C-1.99 12.495 -1.99 12.495 -3 13 C-2.01 8.71 -1.02 4.42 0 0 Z " fill="#1C1C1D" transform="translate(212,795)"/>
<path d="M0 0 C0.66 0.33 1.32 0.66 2 1 C2.25 6.625 2.25 6.625 0 10 C-0.66 10 -1.32 10 -2 10 C-1.34 6.7 -0.68 3.4 0 0 Z " fill="#151515" transform="translate(221,763)"/>
<path d="M0 0 C0.66 0.33 1.32 0.66 2 1 C1.50769231 6.53846154 1.50769231 6.53846154 -1.0625 8.875 C-2.0215625 9.431875 -2.0215625 9.431875 -3 10 C-2.69201674 8.51988629 -2.378482 7.04092675 -2.0625 5.5625 C-1.88847656 4.73878906 -1.71445312 3.91507813 -1.53515625 3.06640625 C-1 1 -1 1 0 0 Z " fill="#181717" transform="translate(510,794)"/>
<path d="M0 0 C0.66 0 1.32 0 2 0 C2.25 6.625 2.25 6.625 0 10 C-0.66 10 -1.32 10 -2 10 C-1.34 6.7 -0.68 3.4 0 0 Z " fill="#131413" transform="translate(227,741)"/>
<path d="M0 0 C2.49505962 2.49505962 2.35948376 3.67328888 2.625 7.125 C2.69976563 8.03507813 2.77453125 8.94515625 2.8515625 9.8828125 C2.92503906 10.93082031 2.92503906 10.93082031 3 12 C0.9375 10.5 0.9375 10.5 -1 8 C-1.05928384 5.17593353 -0.55954815 2.79774073 0 0 Z " fill="#0B0B0B" transform="translate(527,726)"/>
<path d="M0 0 C2.31 0.33 4.62 0.66 7 1 C7 1.66 7 2.32 7 3 C7.99 3.33 8.98 3.66 10 4 C7.45297384 5.27351308 6.5717055 4.80191925 3.875 4.0625 C3.15054688 3.86785156 2.42609375 3.67320312 1.6796875 3.47265625 C1.12539063 3.31667969 0.57109375 3.16070312 0 3 C0 2.01 0 1.02 0 0 Z " fill="#E0E0E0" transform="translate(559,215)"/>
<path d="M0 0 C0.33 0 0.66 0 1 0 C1 3.63 1 7.26 1 11 C-0.98 11.99 -0.98 11.99 -3 13 C-2.01 8.71 -1.02 4.42 0 0 Z " fill="#212121" transform="translate(218,773)"/>
<path d="M0 0 C2.58926331 2.58926331 2.37398043 4.02705279 2.625 7.625 C2.69976562 8.62789062 2.77453125 9.63078125 2.8515625 10.6640625 C2.90054688 11.43492187 2.94953125 12.20578125 3 13 C2.71125 12.38125 2.4225 11.7625 2.125 11.125 C1.06279958 8.86674235 1.06279958 8.86674235 -1 7 C-0.625 3.375 -0.625 3.375 0 0 Z " fill="#F2F2F2" transform="translate(187,762)"/>
<path d="M0 0 C0.66 0.66 1.32 1.32 2 2 C1.96712417 4.72869407 1.43602229 7.2966618 1 10 C0.01 10 -0.98 10 -2 10 C-1.34 6.7 -0.68 3.4 0 0 Z " fill="#1A1A1A" transform="translate(230,730)"/>
<path d="M0 0 C0.99 0 1.98 0 3 0 C3.66 2.97 4.32 5.94 5 9 C4.01 9.33 3.02 9.66 2 10 C1.7834375 8.63875 1.7834375 8.63875 1.5625 7.25 C1.13590527 4.78523044 0.64925779 2.41152893 0 0 Z " fill="#DEDEDE" transform="translate(546,721)"/>
<path d="M0 0 C1.12380503 3.37141509 0.98197462 4.64492003 0 8 C-1.5625 10.3125 -1.5625 10.3125 -3 12 C-3.33 11.34 -3.66 10.68 -4 10 C-3.67 9.38125 -3.34 8.7625 -3 8.125 C-1.80467778 5.58494029 -2.07699478 4.58441461 -3 2 C-2.01 2 -1.02 2 0 2 C0 1.34 0 0.68 0 0 Z " fill="#E1E1E1" transform="translate(369,710)"/>
<path d="M0 0 C2 3 2 3 1.7578125 5.04296875 C1.171875 7.02864583 0.5859375 9.01432292 0 11 C-0.66 11 -1.32 11 -2 11 C-1.125 3.375 -1.125 3.375 0 0 Z " fill="#DFDFDE" transform="translate(685,437)"/>
<path d="M0 0 C0.66 0 1.32 0 2 0 C2.66 2.97 3.32 5.94 4 9 C2.68 8.34 1.36 7.68 0 7 C0 4.69 0 2.38 0 0 Z " fill="#1B1B1B" transform="translate(168,782)"/>
<path d="M0 0 C0.99 0.66 1.98 1.32 3 2 C2.01 3.98 1.02 5.96 0 8 C-0.99 7.34 -1.98 6.68 -3 6 C-2.01 4.02 -1.02 2.04 0 0 Z " fill="#E0E1E2" transform="translate(756,760)"/>
<path d="M0 0 C1.88391785 3.26545761 2.49287967 6.28111761 3 10 C2.34 10 1.68 10 1 10 C1 9.01 1 8.02 1 7 C0.34 7 -0.32 7 -1 7 C-0.67 4.69 -0.34 2.38 0 0 Z " fill="#DAD9D9" transform="translate(182,741)"/>
<path d="M0 0 C2.17766075 4.35532149 2.03039555 5.46625958 1 10 C0.01 10 -0.98 10 -2 10 C-1.34 6.7 -0.68 3.4 0 0 Z " fill="#DCDCDC" transform="translate(210,716)"/>
<path d="M0 0 C0.66 0.33 1.32 0.66 2 1 C1.34 4.63 0.68 8.26 0 12 C-2 8 -2 8 -1.6875 6 C-1.460625 5.34 -1.23375 4.68 -1 4 C-0.814375 3.2575 -0.62875 2.515 -0.4375 1.75 C-0.293125 1.1725 -0.14875 0.595 0 0 Z " fill="#E0E0E0" transform="translate(302,367)"/>
<path d="M0 0 C3.7952131 1.49097658 5.61042731 3.75700849 8 7 C5 7 5 7 3.3125 5.625 C2 4 2 4 2 2 C1.34 2 0.68 2 0 2 C0 1.34 0 0.68 0 0 Z " fill="#232322" transform="translate(662,273)"/>
<path d="M0 0 C0.99 0.33 1.98 0.66 3 1 C0.375 5.875 0.375 5.875 -3 7 C-3.33 6.34 -3.66 5.68 -4 5 C-3.67 4.34 -3.34 3.68 -3 3 C-2.34 3 -1.68 3 -1 3 C-0.67 2.01 -0.34 1.02 0 0 Z " fill="#E2E2E2" transform="translate(327,604)"/>
<path d="M0 0 C0.93065133 2.60582371 1.14917407 3.64198224 0.0625 6.25 C-0.4634375 7.11625 -0.4634375 7.11625 -1 8 C-1.66 7.34 -2.32 6.68 -3 6 C-2.01 4.02 -1.02 2.04 0 0 Z M-5 7 C-4.34 7.33 -3.68 7.66 -3 8 C-3.99 8.33 -4.98 8.66 -6 9 C-6.33 9.66 -6.66 10.32 -7 11 C-7 10.01 -7 9.02 -7 8 C-6.34 7.67 -5.68 7.34 -5 7 Z " fill="#131313" transform="translate(608,525)"/>
<path d="M0 0 C0.66 0 1.32 0 2 0 C2.33 0.99 2.66 1.98 3 3 C2.67 3.66 2.34 4.32 2 5 C3.65 5 5.3 5 7 5 C7 5.33 7 5.66 7 6 C4.125 6.125 4.125 6.125 1 6 C0.34 5.34 -0.32 4.68 -1 4 C-0.625 1.875 -0.625 1.875 0 0 Z " fill="#D5D6D6" transform="translate(475,529)"/>
<path d="M0 0 C0.66 0.33 1.32 0.66 2 1 C2.75 3.375 2.75 3.375 3 6 C2.01 7.485 2.01 7.485 1 9 C-1.125 2.25 -1.125 2.25 0 0 Z " fill="#151515" transform="translate(875,792)"/>
<path d="M0 0 C1.125 1.75 1.125 1.75 2 4 C1.125 6.25 1.125 6.25 0 8 C-0.66 8 -1.32 8 -2 8 C-1.125 1.125 -1.125 1.125 0 0 Z " fill="#151615" transform="translate(233,722)"/>
<path d="M0 0 C2 3 2 3 2 6 C1.34 6 0.68 6 0 6 C0 7.32 0 8.64 0 10 C-0.66 10 -1.32 10 -2 10 C-1.34 6.7 -0.68 3.4 0 0 Z " fill="#DCDDDC" transform="translate(509,711)"/>
<path d="M0 0 C2.64 0.33 5.28 0.66 8 1 C7.360625 1.103125 6.72125 1.20625 6.0625 1.3125 C5.0415625 1.6528125 5.0415625 1.6528125 4 2 C3.67 2.99 3.34 3.98 3 5 C3 4.34 3 3.68 3 3 C1.68 3.33 0.36 3.66 -1 4 C-0.67 2.68 -0.34 1.36 0 0 Z " fill="#E2E2E2" transform="translate(630,453)"/>
<path d="M0 0 C1.80411967 2.75924185 2.0127245 3.88972103 1.625 7.25 C1.41875 8.1575 1.2125 9.065 1 10 C-1.56687367 6.1496895 -0.83288724 4.41430237 0 0 Z " fill="#E1E1E1" transform="translate(171,700)"/>
<path d="M0 0 C0.66 0.33 1.32 0.66 2 1 C0.37660195 2.70884005 -1.29319053 4.37446717 -3 6 C-3.66 6 -4.32 6 -5 6 C-5.33 5.01 -5.66 4.02 -6 3 C-5.195625 2.690625 -4.39125 2.38125 -3.5625 2.0625 C-1.10919595 1.23664655 -1.10919595 1.23664655 0 0 Z " fill="#F0F0F1" transform="translate(283,417)"/>
<path d="M0 0 C0.66 0 1.32 0 2 0 C2.33 1.32 2.66 2.64 3 4 C3.66 4 4.32 4 5 4 C4.67 5.32 4.34 6.64 4 8 C1.84622436 5.37801226 0.59927826 3.35595828 0 0 Z " fill="#E0E0E0" transform="translate(703,325)"/>
<path d="M0 0 C0.66 0.66 1.32 1.32 2 2 C-0.31 3.32 -2.62 4.64 -5 6 C-5.66 5.34 -6.32 4.68 -7 4 C-4.69 2.68 -2.38 1.36 0 0 Z " fill="#131213" transform="translate(373,222)"/>
</svg>
